<svg width="97" height="97" viewBox="0 0 97 97" fill="none" xmlns="http://www.w3.org/2000/svg">
<path d="M48.5 95.375C74.3884 95.375 95.375 74.3884 95.375 48.5C95.375 22.6117 74.3884 1.625 48.5 1.625C22.6117 1.625 1.625 22.6117 1.625 48.5C1.625 74.3884 22.6117 95.375 48.5 95.375Z" fill="#75978C" stroke="#75978C" stroke-width="2" stroke-miterlimit="10"/>
<path d="M36.7797 27.0117H60.2172L46.5484 46.5468C48.7967 46.5468 51.0104 47.1013 52.9933 48.1612C54.9761 49.221 56.667 50.7536 57.9161 52.623C59.1652 54.4924 59.934 56.6411 60.1544 58.8786C60.3748 61.1161 60.0399 63.3735 59.1795 65.4507C58.3191 67.5279 56.9597 69.3608 55.2217 70.7872C53.4837 72.2135 51.4208 73.1892 49.2156 73.6278C47.0105 74.0665 44.7312 73.9545 42.5796 73.3018C40.4281 72.6492 38.4707 71.476 36.8809 69.8861" stroke="white" stroke-width="2" stroke-linecap="round" stroke-linejoin="round"/>
</svg>
