<svg width="97" height="97" viewBox="0 0 97 97" fill="none" xmlns="http://www.w3.org/2000/svg">
<path d="M48.5 95.375C74.3884 95.375 95.375 74.3884 95.375 48.5C95.375 22.6117 74.3884 1.625 48.5 1.625C22.6117 1.625 1.625 22.6117 1.625 48.5C1.625 74.3884 22.6117 95.375 48.5 95.375Z" fill="#75978C" stroke="#75978C" stroke-width="2" stroke-miterlimit="10"/>
<path d="M37.7021 32.2196C38.3385 30.7141 39.2827 29.3583 40.474 28.2393C41.6654 27.1204 43.0777 26.2629 44.6201 25.7222C46.1625 25.1814 47.801 24.9691 49.4303 25.0991C51.0596 25.2291 52.6437 25.6985 54.0809 26.477C55.518 27.2556 56.7765 28.3261 57.7753 29.6198C58.7742 30.9136 59.4915 32.4019 59.881 33.9893C60.2705 35.5767 60.3238 37.228 60.0373 38.8372C59.7508 40.4463 59.1308 41.9778 58.2174 43.3332V43.3332L36.7812 71.9374V71.9346H60.2188" stroke="white" stroke-width="2" stroke-linecap="round" stroke-linejoin="round"/>
</svg>
