<svg width="59" height="64" viewBox="0 0 59 64" fill="none" xmlns="http://www.w3.org/2000/svg">
<g clip-path="url(#clip0)">
<path d="M33.9239 63.3608L0 30.0399L25.6372 4.85748C25.8098 4.68704 27.5362 3.23831 27.7952 5.96534C27.8815 6.94536 26.0688 8.73498 26.5435 8.86281C26.673 8.86281 27.6225 7.1158 28.2699 7.20102C29.3489 7.28624 31.3343 11.1637 33.665 12.9534C33.8376 13.0812 34.226 13.3795 34.7008 13.7203C34.6576 13.6777 34.6576 13.6351 34.6145 13.6351C29.5216 8.26627 32.0249 2.64177 32.3702 1.96001C33.9239 -1.44878 36.5999 1.53391 36.4272 2.7696C36.0819 5.11314 34.3555 5.3688 34.5713 8.60715C34.6576 9.67239 35.2187 10.1411 35.6072 11.4194C35.7798 11.9733 35.9524 12.8255 36.1251 13.5073C36.1251 13.209 36.1251 12.7403 36.0388 11.9307C35.9956 8.47932 33.9671 7.45668 36.4704 4.90009C38.6715 2.64177 36.8588 -0.426142 40.0527 0.0425662C42.8581 0.468665 44.455 3.57918 43.635 6.22099C42.4265 10.2263 40.4411 9.88544 39.5347 13.8055C41.477 10.0133 46.3541 9.37412 48.1668 10.9081C49.5048 12.1012 50.7564 12.7829 52.9144 12.8681C53.6913 12.9107 53.2165 14.4021 50.8859 15.0838C49.5911 15.6378 49.7637 16.0213 49.1163 16.6178C47.0015 18.0665 46.7857 15.6804 44.5413 15.2969C42.297 14.9134 40.2685 17.683 39.8369 17.1717C39.7074 16.8735 40.4843 14.2743 43.4192 12.5699C40.139 13.2942 39.0168 17.0013 38.5852 17.2143C37.2473 17.8535 38.9305 9.715 40.139 8.18105C41.1748 6.86014 41.477 5.49663 41.3043 5.02792C41.1748 4.72965 40.4411 6.2636 40.0095 6.64709C39.4053 7.15841 38.8873 7.88278 38.6715 8.56454C37.6789 11.7603 38.1105 15.8082 37.0315 17.2996C36.9883 17.3422 36.9883 17.3422 36.9451 17.3422C36.3841 18.1091 35.3482 16.1065 32.8449 13.6351C31.3775 12.1864 26.9751 9.37412 29.1763 12.0585C29.5216 12.442 31.8522 13.2516 33.4492 14.7856C35.4777 16.703 34.0102 17.2996 33.3628 17.1291C31.7659 17.0865 26.9751 16.1917 25.7666 19.43C28.7879 17.683 32.7154 17.3848 34.226 17.7257C34.3987 17.7257 34.5713 17.7683 34.7008 17.8961C34.744 17.9387 34.7871 17.9813 34.8303 18.0239C35.6935 19.0466 35.7798 22.498 33.9239 26.8016C37.4199 24.245 35.2619 19.217 36.8588 19.004C37.3336 19.004 37.722 19.0892 37.981 19.3448C38.2831 18.4926 39.3621 17.9813 40.8727 18.4074C43.4623 19.1318 47.0446 21.6458 47.9078 22.711C47.0878 19.3874 40.9159 18.237 41.477 17.0439C42.038 16.0639 44.1961 16.1065 45.2751 17.1291C46.872 18.6631 49.6774 18.7057 51.2312 19.4727C53.346 20.4527 52.8281 21.6032 52.3965 23.2223C52.1375 24.1171 54.9861 25.0972 52.0944 25.9067C48.6847 26.8442 48.8142 28.8894 46.9583 28.3355C45.3614 27.8668 45.2751 26.8868 44.4982 25.1398C44.0666 24.1171 42.1244 22.1997 40.4843 21.0066C40.3116 20.8788 40.0958 20.751 39.9232 20.6657C45.2319 28.2077 43.3328 33.5765 40.2253 39.755C37.7652 44.6977 34.9166 50.3648 35.9956 59.6537C36.0819 50.0239 40.959 42.3115 46.3972 36.3462C53.7345 28.2929 56.9283 23.0519 58.3526 18.3222C58.5684 17.6404 59.0863 17.8535 59 19.7283C58.8274 23.0519 57.8778 27.9094 47.4331 39.2436C38.9737 48.4048 38.4989 52.4101 37.0315 59.739C40.3116 48.2343 47.8647 42.7803 51.7059 39.1584C55.8493 35.2383 56.7125 33.7896 56.9283 33.3635C57.1009 32.9374 57.3168 33.2356 57.3168 33.4061C56.9283 39.5419 45.2751 45.8908 38.801 57.7363C45.1024 48.1065 50.0658 49.2996 56.1083 43.6324C56.2809 43.462 56.4535 43.4194 56.4104 43.6751C55.7198 48.49 45.7067 51.3448 41.0454 57.0545C38.4126 60.2503 38.8873 61.7842 37.2904 63.4886C36.3841 64.3408 34.6145 64.0426 33.9239 63.3608ZM37.9378 21.6458C36.8588 23.8615 38.8873 25.5659 38.6284 27.3129C38.2831 29.7416 37.2041 30.3382 35.1756 30.8069C34.0534 31.1052 34.0102 34.3435 31.8954 32.213C29.4353 29.7416 26.6298 31.446 25.7666 29.3581C25.9824 27.185 28.0541 26.7589 29.7805 25.0972C30.9459 23.9893 31.9386 21.6884 32.8449 19.8561C33.147 19.217 33.5355 19.1318 33.8376 18.7057C33.4923 18.8335 33.1039 18.9613 32.7154 19.1744C31.1185 19.984 29.1763 21.3475 28.7015 22.1571C27.8383 23.5632 28.1836 25.0972 26.3709 25.5233C24.256 25.1824 24.774 22.9667 21.7959 21.5605C19.2495 20.3675 21.8822 19.984 21.7527 19.1318C21.4938 17.6404 21.1485 16.5752 23.1339 16.0213C24.6013 15.6378 26.8888 16.8308 28.4426 15.723C29.3058 15.1265 31.4206 14.7856 33.0176 15.9787C31.3343 11.462 23.5655 18.9187 24.0402 9.80022L3.45282 30.0399L33.8808 60.0798C32.1975 51.8135 36.3409 44.2716 39.0168 38.9028C41.3043 33.3209 44.0234 30.253 37.9378 21.6458Z" fill="#2C4065"/>
</g>
<defs>
<clipPath id="clip0">
<rect width="59" height="64" fill="white"/>
</clipPath>
</defs>
</svg>
