<svg width="40" height="40" viewBox="0 0 40 40" fill="none" xmlns="http://www.w3.org/2000/svg">
<path d="M28.5064 6.42789L22.2434 12.6909L23.0877 16.9124L27.3093 17.7568L33.5723 11.4938L33.5729 11.4935C34.3481 13.3234 34.5335 15.3495 34.1033 17.2897C33.6731 19.2299 32.6487 20.9877 31.1726 22.3184C29.6966 23.6492 27.8424 24.4866 25.8682 24.7142C23.8939 24.9418 21.8978 24.5481 20.1577 23.5881L20.1579 23.5878L11.7868 33.2792C11.1149 33.9504 10.204 34.3272 9.25431 34.327C8.30463 34.3267 7.39392 33.9493 6.72239 33.2778C6.05087 32.6063 5.67349 31.6956 5.67322 30.7459C5.67295 29.7962 6.04981 28.8853 6.72095 28.2134L16.4122 19.8424L16.412 19.8425C15.452 18.1024 15.0584 16.1063 15.286 14.132C15.5136 12.1578 16.351 10.3036 17.6817 8.82754C19.0125 7.35151 20.7703 6.3271 22.7105 5.89689C24.6507 5.46667 26.6768 5.65208 28.5067 6.42728L28.5064 6.42789Z" stroke="#995750" stroke-width="2" stroke-linecap="round" stroke-linejoin="round"/>
</svg>
