<svg width="40" height="40" viewBox="0 0 40 40" fill="none" xmlns="http://www.w3.org/2000/svg">
<path d="M20 26.435C21.6154 26.435 22.925 25.1255 22.925 23.51C22.925 21.8945 21.6154 20.585 20 20.585C18.3845 20.585 17.075 21.8945 17.075 23.51C17.075 25.1255 18.3845 26.435 20 26.435Z" stroke="#995750" stroke-width="2" stroke-linecap="round" stroke-linejoin="round"/>
<path d="M20.0001 26.4351V29.9451" stroke="#995750" stroke-width="2" stroke-linecap="round" stroke-linejoin="round"/>
<path d="M31.7002 15.9049H8.2999C7.65372 15.9049 7.12988 16.4287 7.12988 17.0749V33.4551C7.12988 34.1013 7.65372 34.6251 8.2999 34.6251H31.7002C32.3464 34.6251 32.8702 34.1013 32.8702 33.4551V17.0749C32.8702 16.4287 32.3464 15.9049 31.7002 15.9049Z" stroke="#995750" stroke-width="2" stroke-linecap="round" stroke-linejoin="round"/>
<path d="M14.735 15.905V10.6399C14.735 9.24356 15.2897 7.90437 16.2771 6.91698C17.2645 5.92959 18.6037 5.37488 20.0001 5.37488C21.3964 5.37488 22.7356 5.92959 23.723 6.91698C24.7104 7.90437 25.2651 9.24356 25.2651 10.6399V15.905" stroke="#995750" stroke-width="2" stroke-linecap="round" stroke-linejoin="round"/>
</svg>
