<svg width="40" height="40" viewBox="0 0 40 40" fill="none" xmlns="http://www.w3.org/2000/svg">
<path d="M11.4688 5.375H32.1875C32.5107 5.375 32.8207 5.5034 33.0493 5.73196C33.2778 5.96052 33.4062 6.27052 33.4062 6.59375V22.4375C33.4062 22.7607 33.2778 23.0707 33.0493 23.2993C32.8207 23.5278 32.5107 23.6562 32.1875 23.6562H7.8125C7.48927 23.6562 7.17927 23.5278 6.95071 23.2993C6.72215 23.0707 6.59375 22.7607 6.59375 22.4375V10.25C6.59375 8.95707 7.10736 7.71709 8.0216 6.80285C8.93584 5.88861 10.1758 5.375 11.4688 5.375V5.375Z" stroke="#995750" stroke-width="2" stroke-linecap="round" stroke-linejoin="round"/>
<path d="M17.5625 23.6562L16.3438 32.1875C16.3438 33.1572 16.729 34.0872 17.4146 34.7729C18.1003 35.4585 19.0303 35.8438 20 35.8438C20.9697 35.8438 21.8997 35.4585 22.5854 34.7729C23.271 34.0872 23.6562 33.1572 23.6562 32.1875L22.4375 23.6562" stroke="#995750" stroke-width="2" stroke-linecap="round" stroke-linejoin="round"/>
<path d="M6.59375 17.5625H33.4062" stroke="#995750" stroke-width="2" stroke-linecap="round" stroke-linejoin="round"/>
<path d="M26.0938 5.375V11.4688" stroke="#995750" stroke-width="2" stroke-linecap="round" stroke-linejoin="round"/>
</svg>
