<svg width="40" height="40" viewBox="0 0 40 40" fill="none" xmlns="http://www.w3.org/2000/svg">
<path d="M20 26.8162C25.9604 26.8162 30.7923 21.73 30.7923 15.4558C30.7923 9.18167 25.9604 4.09546 20 4.09546C14.0395 4.09546 9.20764 9.18167 9.20764 15.4558C9.20764 21.73 14.0395 26.8162 20 26.8162Z" stroke="#995750" stroke-width="2" stroke-linecap="round" stroke-linejoin="round"/>
<path d="M19.9997 22.2722C23.576 22.2722 26.4751 19.2205 26.4751 15.456C26.4751 11.6915 23.576 8.63977 19.9997 8.63977C16.4234 8.63977 13.5243 11.6915 13.5243 15.456C13.5243 19.2205 16.4234 22.2722 19.9997 22.2722Z" stroke="#995750" stroke-width="2" stroke-linecap="round" stroke-linejoin="round"/>
<path d="M26.4758 24.5433V35.9044L19.9995 32.4963L13.525 35.9044V24.5443" stroke="#995750" stroke-width="2" stroke-linecap="round" stroke-linejoin="round"/>
</svg>
