<svg width="40" height="40" viewBox="0 0 40 40" fill="none" xmlns="http://www.w3.org/2000/svg">
<path d="M5.35651 16.3394H12.6778V32.2021H5.35651C5.03289 32.2021 4.72252 32.0736 4.49368 31.8448C4.26485 31.6159 4.13629 31.3056 4.13629 30.9819V17.5596C4.13629 17.2359 4.26485 16.9256 4.49368 16.6967C4.72252 16.4679 5.03289 16.3394 5.35651 16.3394V16.3394Z" stroke="#995750" stroke-width="2" stroke-linecap="round" stroke-linejoin="round"/>
<path d="M12.6778 16.3394L18.7789 4.13721C19.4198 4.13721 20.0545 4.26345 20.6467 4.50874C21.2389 4.75403 21.7769 5.11355 22.2302 5.56678C22.6834 6.02001 23.0429 6.55807 23.2882 7.15024C23.5335 7.74242 23.6597 8.3771 23.6597 9.01807V12.6787H33.0974C33.4434 12.6787 33.7855 12.7523 34.1009 12.8946C34.4164 13.0369 34.6979 13.2446 34.9269 13.5041C35.1559 13.7635 35.3272 14.0686 35.4292 14.3993C35.5313 14.7299 35.5619 15.0785 35.519 15.4218L33.6887 30.0644C33.6149 30.6546 33.3281 31.1976 32.8822 31.5913C32.4362 31.9849 31.8619 32.2021 31.2671 32.2021H12.6778" stroke="#995750" stroke-width="2" stroke-linecap="round" stroke-linejoin="round"/>
</svg>
