<svg width="44" height="44" viewBox="0 0 44 44" fill="none" xmlns="http://www.w3.org/2000/svg">
<g filter="url(#filter0_f)">
<path d="M6 38L8.26109 29.7852C6.87083 27.3814 6.12983 24.6508 6.13747 21.8593C6.13747 13.1119 13.2876 6 22.0725 6C26.3351 6 30.338 7.65061 33.3402 10.6475C36.3499 13.6443 38.0076 17.6301 38 21.8669C38 30.6142 30.8498 37.7262 22.0649 37.7262H22.0573C19.3913 37.7262 16.771 37.0569 14.4411 35.7941L6 38ZM14.8384 32.9189L15.3196 33.208C17.3516 34.4098 19.6815 35.0411 22.0573 35.0487H22.0649C29.3602 35.0487 35.3033 29.1385 35.3033 21.8669C35.3033 18.3451 33.9283 15.0364 31.4303 12.5414C28.9324 10.0465 25.6017 8.67743 22.0649 8.67743C14.7619 8.67743 8.81875 14.5876 8.81875 21.8592C8.81875 24.3466 9.51389 26.7729 10.8431 28.8724L11.1563 29.3744L9.81954 34.2349L14.8384 32.9189Z" fill="black" fill-opacity="0.24"/>
</g>
<path d="M6.7229 37.1522L8.88053 29.3172C7.55008 27.0191 6.85019 24.4129 6.85115 21.7603C6.85115 13.4219 13.6712 6.63867 22.0376 6.63867C26.104 6.63867 29.9139 8.21618 32.7806 11.0706C35.6474 13.9253 37.2243 17.7264 37.2243 21.7678C37.2243 30.106 30.4042 36.8892 22.0377 36.8892H22.0302C19.4877 36.8892 16.9905 36.2508 14.7725 35.0489L6.7229 37.1524V37.1522Z" fill="url(#paint0_linear)"/>
<path d="M6.17212 37.7004L8.40514 29.5875C7.03214 27.2138 6.30023 24.5169 6.30788 21.7601C6.30788 13.1214 13.3693 6.09766 22.0452 6.09766C26.2548 6.09766 30.2079 7.72766 33.1729 10.6874C36.1452 13.6471 37.7823 17.5834 37.7748 21.7676C37.7748 30.4063 30.7134 37.43 22.0375 37.43H22.0301C19.4022 37.429 16.8164 36.773 14.5084 35.5219L6.17212 37.7005V37.7004ZM14.9007 32.6824L15.376 32.9679C17.3828 34.1548 19.6837 34.7783 22.0301 34.7858H22.0376C29.2423 34.7858 35.1117 28.949 35.1117 21.7676C35.1117 18.2896 33.7538 15.0218 31.2868 12.5579C28.8198 10.094 25.5305 8.74188 22.0376 8.74188C14.8253 8.74188 8.95595 14.5787 8.95595 21.7601C8.95595 24.2165 9.64238 26.6128 10.9551 28.686L11.2645 29.1819L9.94421 33.982L14.9007 32.6824Z" fill="white"/>
<path d="M18.1071 15.2022C17.8128 14.5486 17.5035 14.5335 17.2244 14.526C16.9981 14.5186 16.7341 14.5186 16.47 14.5186C16.206 14.5186 15.7834 14.6162 15.4213 15.0068C15.0592 15.3975 14.0482 16.344 14.0482 18.2746C14.0482 20.1976 15.459 22.0605 15.6552 22.3234C15.8513 22.5864 18.3786 26.6653 22.3695 28.2354C25.689 29.5425 26.368 29.2795 27.0847 29.2119C27.8089 29.1443 29.4084 28.2654 29.7402 27.349C30.0646 26.4325 30.0646 25.6513 29.9666 25.486C29.8685 25.3207 29.6045 25.2232 29.2121 25.0277C28.8199 24.8324 26.8885 23.8859 26.5265 23.7508C26.1643 23.6156 25.9003 23.5555 25.6438 23.9461C25.3797 24.3366 24.6253 25.2155 24.3989 25.4785C24.1726 25.7414 23.9388 25.7715 23.5464 25.5762C23.1541 25.3809 21.8867 24.9676 20.3855 23.6306C19.2161 22.5939 18.424 21.3093 18.1975 20.9187C17.9712 20.5282 18.175 20.3177 18.3711 20.1225C18.5446 19.9497 18.7634 19.6642 18.9596 19.4389C19.1557 19.2135 19.2236 19.0483 19.3519 18.7853C19.4801 18.5224 19.4197 18.2971 19.3217 18.1018C19.2236 17.9064 18.4542 15.9758 18.1071 15.2022Z" fill="white"/>
<defs>
<filter id="filter0_f" x="0" y="0" width="44" height="44" filterUnits="userSpaceOnUse" color-interpolation-filters="sRGB">
<feFlood flood-opacity="0" result="BackgroundImageFix"/>
<feBlend mode="normal" in="SourceGraphic" in2="BackgroundImageFix" result="shape"/>
<feGaussianBlur stdDeviation="3" result="effect1_foregroundBlur"/>
</filter>
<linearGradient id="paint0_linear" x1="21.973" y1="37.1502" x2="21.973" y2="6.63684" gradientUnits="userSpaceOnUse">
<stop stop-color="#20B038"/>
<stop offset="1" stop-color="#60D66A"/>
</linearGradient>
</defs>
</svg>
