<svg width="55" height="58" viewBox="0 0 55 58" fill="none" xmlns="http://www.w3.org/2000/svg">
<path d="M31.4821 57.2568L0.913086 27.2312L24.0149 4.53917C24.1704 4.38558 25.7261 3.08012 25.9595 5.53746C26.0372 6.42057 24.4038 8.0332 24.8316 8.14838C24.9483 8.14838 25.8039 6.57415 26.3873 6.65094C27.3596 6.72773 29.1486 10.2218 31.2487 11.8344C31.4043 11.9496 31.7543 12.2184 32.1822 12.5255C32.1433 12.4871 32.1433 12.4487 32.1044 12.4487C27.5151 7.61084 29.7709 2.54258 30.082 1.92824C31.4821 -1.14344 33.8934 1.54428 33.7378 2.65776C33.4267 4.76954 31.871 4.99992 32.0655 7.91801C32.1433 8.87791 32.6489 9.30026 32.9989 10.4521C33.1544 10.9513 33.31 11.7192 33.4656 12.3335C33.4656 12.0648 33.4656 11.6424 33.3878 10.9129C33.3489 7.80282 31.521 6.88132 33.7767 4.57756C35.7602 2.54258 34.1267 -0.221932 37.0047 0.200423C39.5327 0.584383 40.9717 3.38729 40.2328 5.76784C39.1438 9.37706 37.3548 9.06989 36.538 12.6023C38.2882 9.18508 42.683 8.60914 44.3164 9.99139C45.5221 11.0665 46.6499 11.6808 48.5945 11.7576C49.2946 11.796 48.8668 13.1399 46.7666 13.7542C45.5999 14.2533 45.7554 14.5989 45.172 15.1364C43.2663 16.4419 43.0719 14.2917 41.0495 13.9462C39.0271 13.6006 37.1992 16.0963 36.8103 15.6356C36.6936 15.3668 37.3937 13.0247 40.0383 11.4888C37.0825 12.1416 36.0713 15.482 35.6824 15.674C34.4768 16.2499 35.9936 8.9163 37.0825 7.53405C38.0159 6.34378 38.2882 5.1151 38.1326 4.69275C38.0159 4.42398 37.3548 5.80623 36.9659 6.1518C36.4214 6.61255 35.9547 7.26528 35.7602 7.87961C34.8657 10.7593 35.2546 14.4069 34.2823 15.7508C34.2434 15.7892 34.2434 15.7892 34.2045 15.7892C33.6989 16.4803 32.7655 14.6757 30.5098 12.4487C29.1875 11.1433 25.2205 8.60914 27.204 11.0281C27.5151 11.3736 29.6153 12.1032 31.0543 13.4854C32.8822 15.2132 31.5599 15.7508 30.9765 15.5972C29.5375 15.5588 25.2205 14.7525 24.1315 17.6706C26.854 16.0963 30.3931 15.8276 31.7543 16.1347C31.9099 16.1347 32.0655 16.1731 32.1822 16.2883C32.221 16.3267 32.2599 16.3651 32.2988 16.4035C33.0767 17.325 33.1544 20.4351 31.4821 24.3131C34.6323 22.0093 32.6877 17.4786 34.1267 17.2866C34.5546 17.2866 34.9046 17.3634 35.1379 17.5938C35.4102 16.8259 36.3825 16.3651 37.7437 16.7491C40.0772 17.4018 43.3052 19.6672 44.0831 20.6271C43.3441 17.6322 37.7826 16.5955 38.2882 15.5204C38.7938 14.6373 40.7384 14.6757 41.7107 15.5972C43.1497 16.9795 45.6776 17.0179 47.0777 17.709C48.9834 18.5921 48.5167 19.6288 48.1278 21.0878C47.8945 21.8941 50.4613 22.7772 47.8556 23.5068C44.7831 24.3515 44.8998 26.1945 43.2274 25.6953C41.7884 25.273 41.7107 24.3899 41.0106 22.8156C40.6217 21.8941 38.8716 20.1663 37.3937 19.0912C37.2381 18.976 37.0436 18.8609 36.8881 18.7841C41.6718 25.5801 39.9605 30.418 37.1603 35.9855C34.9435 40.4394 32.3766 45.546 33.3489 53.9164C33.4267 45.2389 37.8215 38.2892 42.7219 32.9138C49.3335 25.6569 52.2115 20.9342 53.4949 16.6723C53.6894 16.058 54.1561 16.2499 54.0783 17.9394C53.9227 20.9342 53.0671 25.3114 43.6553 35.5247C36.0325 43.7798 35.6046 47.389 34.2823 53.9931C37.2381 43.6262 44.0442 38.7116 47.5056 35.4479C51.2392 31.9155 52.017 30.61 52.2115 30.2261C52.367 29.8421 52.5615 30.1109 52.5615 30.2645C52.2115 35.7935 41.7107 41.5145 35.8769 52.1885C41.5551 43.5111 46.0277 44.5861 51.4725 39.4795C51.6281 39.3259 51.7837 39.2875 51.7448 39.5179C51.1225 43.8566 42.0996 46.4291 37.8993 51.5742C35.5269 54.4539 35.9547 55.8362 34.5157 57.372C33.6989 58.1399 32.1044 57.8711 31.4821 57.2568ZM35.099 19.6672C34.1267 21.6638 35.9547 23.1996 35.7213 24.7738C35.4102 26.9624 34.4379 27.4999 32.61 27.9223C31.5988 28.1911 31.5599 31.1092 29.6542 29.1894C27.4373 26.9624 24.9094 28.4982 24.1315 26.6168C24.326 24.6586 26.1928 24.2747 27.7485 22.7772C28.7986 21.7789 29.6931 19.7056 30.5098 18.0545C30.782 17.4786 31.1321 17.4018 31.4043 17.0179C31.0932 17.133 30.7432 17.2482 30.3931 17.4402C28.9541 18.1697 27.204 19.3984 26.7762 20.1279C25.9983 21.395 26.3095 22.7772 24.676 23.1612C22.7703 22.854 23.237 20.8574 20.5535 19.5904C18.2589 18.5153 20.6313 18.1697 20.5146 17.4018C20.2812 16.058 19.9701 15.0981 21.7591 14.5989C23.0815 14.2533 25.1427 15.3284 26.5428 14.3301C27.3207 13.7926 29.2264 13.4854 30.6654 14.5605C29.1486 10.4905 22.1481 17.2098 22.5759 8.9931L4.02444 27.2312L31.4432 54.3003C29.9264 46.8515 33.66 40.0554 36.0713 35.2175C38.1326 30.1877 40.5828 27.4232 35.099 19.6672Z" fill="white"/>
</svg>
