<svg width="67" height="74" viewBox="0 0 67 74" fill="none" xmlns="http://www.w3.org/2000/svg">
<path d="M1 27.1369V4.13643C1 3.3046 1.31128 2.50684 1.86537 1.91864C2.41945 1.33045 3.17095 1 3.95455 1H63.0455C63.829 1 64.5806 1.33045 65.1346 1.91864C65.6887 2.50684 66 3.3046 66 4.13643V27.1369C66 60.0755 39.6654 70.9883 34.4071 72.8389C33.8193 73.0537 33.1807 73.0537 32.5929 72.8389C27.3346 70.9883 1 60.0755 1 27.1369Z" stroke="#995750" stroke-width="2" stroke-linecap="round" stroke-linejoin="round"/>
<path d="M33.5001 19.8186V35.5008" stroke="#995750" stroke-width="2" stroke-linecap="round" stroke-linejoin="round"/>
<path d="M34 46.4102C34 46.6863 33.7761 46.9102 33.5 46.9102C33.2239 46.9102 33 46.6863 33 46.4102C33 46.134 33.2239 45.9102 33.5 45.9102C33.7761 45.9102 34 46.134 34 46.4102Z" fill="#995750" stroke="#995750" stroke-width="2"/>
</svg>
